<svg width="28" height="24" viewBox="0 0 28 24" fill="none" xmlns="http://www.w3.org/2000/svg">
<path id="Vector" d="M25.1233 6.23199C25.1419 6.48415 25.1419 6.73487 25.1419 6.98559C25.1419 14.6585 19.3672 23.5 8.81376 23.5C5.56239 23.5 2.54183 22.5476 0 20.8934C0.461632 20.9467 0.906167 20.9654 1.38632 20.9654C3.96946 20.9717 6.47945 20.0982 8.5117 18.4856C7.31405 18.4637 6.15307 18.0641 5.19085 17.3426C4.22864 16.6211 3.51323 15.6137 3.14451 14.4611C3.49929 14.5144 3.85549 14.5504 4.22878 14.5504C4.74313 14.5504 5.26033 14.4784 5.74048 14.353C4.44073 14.0876 3.272 13.3751 2.433 12.3367C1.594 11.2983 1.13655 9.99805 1.13841 8.65706V8.58501C1.90352 9.01585 2.79117 9.2853 3.73153 9.32133C2.94375 8.79191 2.29779 8.07352 1.85129 7.23025C1.40479 6.38697 1.17162 5.44504 1.1726 4.48847C1.1726 3.41066 1.45614 2.42219 1.95339 1.56052C3.39548 3.3545 5.19408 4.82213 7.23272 5.86838C9.27136 6.91463 11.5046 7.51616 13.7877 7.63401C13.6994 7.20173 13.6452 6.7536 13.6452 6.30403C13.6449 5.54173 13.793 4.78683 14.0813 4.08248C14.3696 3.37813 14.7923 2.73815 15.3253 2.19912C15.8583 1.66009 16.4911 1.23258 17.1876 0.941035C17.8841 0.649489 18.6305 0.499622 19.3843 0.500001C21.037 0.500001 22.5288 1.20029 23.5774 2.33285C24.8623 2.08158 26.0944 1.60724 27.2192 0.930836C26.7909 2.27207 25.8938 3.40937 24.6959 4.12968C25.8354 3.99824 26.9491 3.69518 28 3.23055C27.2151 4.38775 26.2425 5.40251 25.1233 6.23199Z" fill="#222222"/>
</svg>
